<mxfile host="app.diagrams.net" modified="2023-07-16T04:50:54.598Z" agent="Mozilla/5.0 (Windows NT 10.0; Win64; x64) AppleWebKit/537.36 (KHTML, like Gecko) Chrome/114.0.0.0 Safari/537.36" version="21.5.0" etag="cq4jjfFug1NQgyKQYs3e" type="github">
  <diagram name="Page-1" id="UtQYlZD3gmYjc7AmOtAt">
    <mxGraphModel>
      <root>
        <mxCell id="0" />
        <mxCell id="1" parent="0" />
      </root>
    </mxGraphModel>
  </diagram>
</mxfile>
